<?xml version="1.0" encoding="utf-8"?>
<!-- Generator: Adobe Illustrator 19.1.0, SVG Export Plug-In . SVG Version: 6.00 Build 0)  -->
<!DOCTYPE svg PUBLIC "-//W3C//DTD SVG 1.1//EN" "http://www.w3.org/Graphics/SVG/1.1/DTD/svg11.dtd">
<svg version="1.1" id="Layer_1" xmlns="http://www.w3.org/2000/svg" xmlns:xlink="http://www.w3.org/1999/xlink" x="0px" y="0px"
	 viewBox="0 0 180.7 186" style="enable-background:new 0 0 180.7 186;" xml:space="preserve">
<style type="text/css">
	.st0{fill:#188DC8;}
	.st1{fill:#6C965D;}
</style>
<g>
	<g>
		<g>
			<path class="st0" d="M88.9,114.1c-5.2,0-10.1-0.4-14.8-0.9c0.8,5.4,2,10.3,3.4,14.6c3.6,0.7,7.4,1.1,11.4,1.2V114.1z"/>
			<path class="st0" d="M91.6,73.5c5.2,0,10.1,0.4,14.8,0.9c-0.8-5.4-2-10.3-3.4-14.6c-3.6-0.7-7.4-1.1-11.4-1.2V73.5z"/>
			<path class="st0" d="M91.6,44.1v11.8c3.5,0.1,7,0.4,10.3,0.9C99.1,49.7,95.5,45,91.6,44.1z"/>
			<path class="st0" d="M98.2,45.2c2.6,2.8,4.9,7,6.8,12.2c4.2,0.9,8.1,2.1,11.7,3.7C112,53.3,105.6,47.7,98.2,45.2z"/>
			<path class="st0" d="M88.9,143.5v-11.8c-3.5-0.1-7-0.4-10.3-0.9C81.4,137.9,85,142.6,88.9,143.5z"/>
			<path class="st0" d="M88.9,76.2c-5.3,0.1-10.4,0.4-15.2,1c-0.6,4.8-1,9.9-1,15.2h16.2V76.2z"/>
			<path class="st0" d="M88.9,44.1C85,45,81.4,49.7,78.6,56.9c3.3-0.5,6.8-0.9,10.3-0.9V44.1z"/>
			<path class="st0" d="M88.9,95.2H72.7c0.1,5.3,0.4,10.4,1,15.2c4.8,0.6,9.9,1,15.2,1V95.2z"/>
			<path class="st0" d="M88.9,58.7c-3.9,0.1-7.7,0.5-11.4,1.2c-1.4,4.3-2.6,9.2-3.4,14.6c4.7-0.6,9.6-0.9,14.8-0.9V58.7z"/>
			<path class="st0" d="M109.6,109.9c5.4-0.8,10.3-2,14.6-3.4c0.7-3.6,1.1-7.4,1.2-11.4h-14.8C110.5,100.3,110.2,105.3,109.6,109.9z
				"/>
			<path class="st0" d="M124.3,81.1c-4.3-1.4-9.2-2.6-14.6-3.4c0.6,4.7,0.9,9.6,0.9,14.8h14.8C125.3,88.5,124.9,84.7,124.3,81.1z"/>
			<path class="st0" d="M128.1,92.4H140c-0.9-3.9-5.6-7.5-12.8-10.3C127.8,85.5,128.1,88.9,128.1,92.4z"/>
			<path class="st0" d="M123,67.3c1.5,3.7,2.8,7.6,3.7,11.7c5.2,1.9,9.4,4.2,12.2,6.8C136.4,78.5,130.8,72.1,123,67.3z"/>
			<path class="st0" d="M106.1,60.5c1.3,4.3,2.4,9.1,3.2,14.4c5.3,0.8,10.1,1.8,14.4,3.2c-1.1-4.6-2.7-9-4.6-12.9
				C115.1,63.1,110.7,61.6,106.1,60.5z"/>
			<path class="st0" d="M106.8,77.3c-4.8-0.6-9.9-1-15.2-1v16.2h16.2C107.8,87.2,107.4,82.1,106.8,77.3z"/>
			<path class="st0" d="M91.6,143.5c3.9-0.9,7.5-5.6,10.3-12.8c-3.3,0.5-6.8,0.9-10.3,0.9V143.5z"/>
			<path class="st0" d="M106.4,113.2c-4.7,0.6-9.6,0.9-14.8,0.9v14.8c3.9-0.1,7.7-0.5,11.4-1.2C104.4,123.5,105.6,118.6,106.4,113.2
				z"/>
			<path class="st0" d="M107.8,95.2H91.6v16.2c5.3-0.1,10.4-0.4,15.2-1C107.4,105.5,107.8,100.4,107.8,95.2z"/>
			<path class="st0" d="M128.1,95.2c-0.1,3.5-0.4,7-0.9,10.3c7.2-2.8,11.9-6.4,12.8-10.3H128.1z"/>
			<path class="st0" d="M123.6,109.6c-4.3,1.3-9.1,2.4-14.4,3.2c-0.8,5.3-1.8,10.1-3.2,14.4c4.6-1.1,9-2.7,12.9-4.6
				C121,118.6,122.5,114.3,123.6,109.6z"/>
			<path class="st0" d="M138.8,101.8c-2.8,2.6-7,4.9-12.2,6.8c-0.9,4.2-2.1,8.1-3.7,11.7C130.8,115.5,136.4,109.1,138.8,101.8z"/>
			<path class="st0" d="M116.8,126.5c-3.7,1.5-7.6,2.8-11.7,3.7c-1.9,5.2-4.2,9.4-6.8,12.2C105.6,139.9,112,134.3,116.8,126.5z"/>
			<path class="st0" d="M121,124.5c-4.5,8.7-10.9,15.4-18.3,19c18.3-4.6,32.7-18.9,37.3-37.3C136.4,113.6,129.7,120,121,124.5z"/>
			<path class="st0" d="M82.3,142.4c-2.6-2.8-4.9-7-6.8-12.2c-4.2-0.9-8.1-2.1-11.7-3.7C68.5,134.3,75,139.9,82.3,142.4z"/>
			<path class="st0" d="M121,63.1c8.7,4.5,15.4,10.9,19,18.3c-4.6-18.3-18.9-32.7-37.3-37.3C110.1,47.7,116.5,54.4,121,63.1z"/>
			<path class="st0" d="M59.6,124.5c-8.7-4.5-15.4-10.9-19-18.3c4.6,18.3,18.9,32.7,37.3,37.3C70.4,139.9,64.1,133.2,59.6,124.5z"/>
			<path class="st0" d="M59.6,63.1c4.5-8.7,10.9-15.4,18.3-19c-18.3,4.6-32.7,18.9-37.3,37.3C44.2,74,50.9,67.6,59.6,63.1z"/>
			<path class="st0" d="M41.7,85.8c2.8-2.6,7-4.9,12.2-6.8c0.9-4.2,2.1-8.1,3.7-11.7C49.8,72.1,44.1,78.5,41.7,85.8z"/>
			<path class="st0" d="M63.8,61.1c3.7-1.5,7.6-2.8,11.7-3.7c1.9-5.2,4.2-9.4,6.8-12.2C75,47.7,68.5,53.3,63.8,61.1z"/>
			<path class="st0" d="M55.2,95.2c0.1,3.9,0.5,7.7,1.2,11.4c4.3,1.4,9.2,2.6,14.6,3.4c-0.6-4.7-0.9-9.6-0.9-14.8H55.2z"/>
			<path class="st0" d="M74.5,127.1c-1.3-4.3-2.4-9.1-3.2-14.4c-5.3-0.8-10.1-1.8-14.4-3.2c1.1,4.6,2.7,9,4.6,12.9
				C65.5,124.5,69.8,126,74.5,127.1z"/>
			<path class="st0" d="M56.9,78c4.3-1.3,9.1-2.4,14.4-3.2c0.8-5.3,1.8-10.1,3.2-14.4c-4.6,1.1-9,2.7-12.9,4.6
				C59.6,69,58,73.3,56.9,78z"/>
			<path class="st0" d="M56.3,81.1c-0.7,3.6-1.1,7.4-1.2,11.4H70c0-5.2,0.4-10.1,0.9-14.8C65.5,78.5,60.6,79.6,56.3,81.1z"/>
			<path class="st0" d="M57.6,120.3c-1.5-3.7-2.8-7.6-3.7-11.7c-5.2-1.9-9.4-4.2-12.2-6.8C44.1,109.1,49.8,115.5,57.6,120.3z"/>
			<path class="st0" d="M53.3,105.5c-0.5-3.3-0.9-6.8-0.9-10.3H40.6C41.5,99.1,46.2,102.6,53.3,105.5z"/>
			<path class="st0" d="M52.4,92.4c0.1-3.5,0.4-7,0.9-10.3c-7.2,2.8-11.9,6.4-12.8,10.3H52.4z"/>
		</g>
	</g>
	<path class="st1" d="M157.6,108.9V77.7c4.5-1.7,7.8-6,7.8-11.1c0-6.5-5.3-11.8-11.8-11.8c-2.1,0-4,0.5-5.7,1.5l-20.5-20.5
		c0.8-1.6,1.3-3.4,1.3-5.3c0-6.5-5.3-11.8-11.8-11.8c-5.2,0-9.6,3.3-11.2,8H75.3c-1.6-4.6-6-8-11.2-8c-6.5,0-11.8,5.3-11.8,11.8
		c0,1.8,0.4,3.6,1.2,5.1L32.8,56.1c-1.6-0.9-3.5-1.4-5.5-1.4c-6.5,0-11.8,5.3-11.8,11.8c0,5,3.1,9.3,7.5,11V109
		c-4.4,1.7-7.5,6-7.5,11c0,6.5,5.3,11.8,11.8,11.8c1.7,0,3.3-0.4,4.8-1L53.3,152c-0.6,1.5-1,3.1-1,4.8c0,6.5,5.3,11.8,11.8,11.8
		c5,0,9.3-3.1,11-7.5h30.7c1.7,4.4,6,7.5,11,7.5c6.5,0,11.8-5.3,11.8-11.8c0-1.8-0.4-3.5-1.1-5l21-21c1.5,0.7,3.2,1.1,5,1.1
		c6.5,0,11.8-5.3,11.8-11.8C165.4,114.9,162.1,110.5,157.6,108.9z M141.7,120c0,2,0.5,3.8,1.3,5.4l-20.8,20.8
		c-1.6-0.8-3.5-1.3-5.4-1.3c-5.4,0-9.9,3.6-11.4,8.5h-30c-1.4-4.9-6-8.5-11.4-8.5c-2,0-4,0.5-5.6,1.4l-20.7-20.7
		c0.9-1.7,1.4-3.6,1.4-5.6c0-5.4-3.6-9.9-8.6-11.4V77.9c4.9-1.4,8.6-6,8.6-11.4c0-1.8-0.4-3.4-1.1-4.9l20.7-20.7
		c1.6,0.8,3.4,1.3,5.3,1.3c5.2,0,9.6-3.4,11.2-8.1h30.3c1.6,4.7,6,8.1,11.2,8.1c1.8,0,3.6-0.4,5.1-1.2l20.8,20.8c-0.6,1.4-1,3-1,4.7
		c0,5.3,3.5,9.8,8.2,11.3v30.9C145.2,110.3,141.7,114.7,141.7,120z"/>
</g>
</svg>
