<?xml version="1.0" encoding="utf-8"?>
<!-- Generator: Adobe Illustrator 19.1.0, SVG Export Plug-In . SVG Version: 6.00 Build 0)  -->
<!DOCTYPE svg PUBLIC "-//W3C//DTD SVG 1.1//EN" "http://www.w3.org/Graphics/SVG/1.1/DTD/svg11.dtd">
<svg version="1.1" id="Layer_1" xmlns="http://www.w3.org/2000/svg" xmlns:xlink="http://www.w3.org/1999/xlink" x="0px" y="0px"
	 viewBox="0 0 572 210" style="background-color: white;" xml:space="preserve">
<style type="text/css">
	.st0{fill:#188DC8;}
	.st1{fill:#6C965D;}
</style>
<g>
	<g>
		<path class="st0" d="M99.4,124.5c-5.2,0-10.1-0.4-14.8-0.9c0.8,5.4,2,10.3,3.4,14.6c3.6,0.7,7.4,1.1,11.4,1.2V124.5z"/>
		<path class="st0" d="M102.1,83.9c5.2,0,10.1,0.4,14.8,0.9c-0.8-5.4-2-10.3-3.4-14.6c-3.6-0.7-7.4-1.1-11.4-1.2V83.9z"/>
		<path class="st0" d="M102.1,54.5v11.8c3.5,0.1,7,0.4,10.3,0.9C109.6,60.1,106,55.4,102.1,54.5z"/>
		<path class="st0" d="M108.7,55.6c2.6,2.8,4.9,7,6.8,12.2c4.2,0.9,8.1,2.1,11.7,3.7C122.5,63.7,116,58,108.7,55.6z"/>
		<path class="st0" d="M99.4,153.9V142c-3.5-0.1-7-0.4-10.3-0.9C91.9,148.3,95.5,153,99.4,153.9z"/>
		<path class="st0" d="M99.4,86.6c-5.3,0.1-10.4,0.4-15.2,1c-0.6,4.8-1,9.9-1,15.2h16.2V86.6z"/>
		<path class="st0" d="M99.4,54.5c-3.9,0.9-7.5,5.6-10.3,12.8c3.3-0.5,6.8-0.9,10.3-0.9V54.5z"/>
		<path class="st0" d="M99.4,105.5H83.2c0.1,5.3,0.4,10.4,1,15.2c4.8,0.6,9.9,1,15.2,1V105.5z"/>
		<path class="st0" d="M99.4,69.1c-3.9,0.1-7.7,0.5-11.4,1.2c-1.4,4.3-2.6,9.2-3.4,14.6c4.7-0.6,9.6-0.9,14.8-0.9V69.1z"/>
		<path class="st0" d="M120.1,120.3c5.4-0.8,10.3-2,14.6-3.4c0.7-3.6,1.1-7.4,1.2-11.4H121C121,110.7,120.6,115.7,120.1,120.3z"/>
		<path class="st0" d="M134.7,91.5c-4.3-1.4-9.2-2.6-14.6-3.4c0.6,4.7,0.9,9.6,0.9,14.8h14.8C135.8,98.9,135.4,95.1,134.7,91.5z"/>
		<path class="st0" d="M138.6,102.8h11.8c-0.9-3.9-5.6-7.5-12.8-10.3C138.2,95.8,138.5,99.3,138.6,102.8z"/>
		<path class="st0" d="M133.4,77.7c1.5,3.7,2.8,7.6,3.7,11.7c5.2,1.9,9.4,4.2,12.2,6.8C146.9,88.9,141.2,82.4,133.4,77.7z"/>
		<path class="st0" d="M116.5,70.8c1.3,4.3,2.4,9.1,3.2,14.4c5.3,0.8,10.1,1.8,14.4,3.2c-1.1-4.6-2.7-9-4.6-12.9
			C125.5,73.5,121.2,71.9,116.5,70.8z"/>
		<path class="st0" d="M117.3,87.6c-4.8-0.6-9.9-1-15.2-1v16.2h16.2C118.2,97.5,117.9,92.4,117.3,87.6z"/>
		<path class="st0" d="M102.1,153.9c3.9-0.9,7.5-5.6,10.3-12.8c-3.3,0.5-6.8,0.9-10.3,0.9V153.9z"/>
		<path class="st0" d="M116.9,123.5c-4.7,0.6-9.6,0.9-14.8,0.9v14.8c3.9-0.1,7.7-0.5,11.4-1.2C114.9,133.9,116,129,116.9,123.5z"/>
		<path class="st0" d="M118.3,105.5h-16.2v16.2c5.3-0.1,10.4-0.4,15.2-1C117.9,115.9,118.2,110.8,118.3,105.5z"/>
		<path class="st0" d="M138.6,105.5c-0.1,3.5-0.4,7-0.9,10.3c7.2-2.8,11.9-6.4,12.8-10.3H138.6z"/>
		<path class="st0" d="M134.1,120c-4.3,1.3-9.1,2.4-14.4,3.2c-0.8,5.3-1.8,10.1-3.2,14.4c4.6-1.1,9-2.7,12.9-4.6
			C131.4,129,133,124.6,134.1,120z"/>
		<path class="st0" d="M149.3,112.1c-2.8,2.6-7,4.9-12.2,6.8c-0.9,4.2-2.1,8.1-3.7,11.7C141.2,125.9,146.9,119.5,149.3,112.1z"/>
		<path class="st0" d="M127.2,136.9c-3.7,1.5-7.6,2.8-11.7,3.7c-1.9,5.2-4.2,9.4-6.8,12.2C116,150.3,122.5,144.7,127.2,136.9z"/>
		<path class="st0" d="M131.4,134.9c-4.5,8.7-10.9,15.4-18.3,19c18.3-4.6,32.7-18.9,37.3-37.3C146.8,124,140.1,130.4,131.4,134.9z"
			/>
		<path class="st0" d="M92.8,152.7c-2.6-2.8-4.9-7-6.8-12.2c-4.2-0.9-8.1-2.1-11.7-3.7C79,144.7,85.4,150.3,92.8,152.7z"/>
		<path class="st0" d="M131.4,73.5c8.7,4.5,15.4,10.9,19,18.3c-4.6-18.3-18.9-32.7-37.3-37.3C120.5,58.1,126.9,64.8,131.4,73.5z"/>
		<path class="st0" d="M70,134.9c-8.7-4.5-15.4-10.9-19-18.3c4.6,18.3,18.9,32.7,37.3,37.3C80.9,150.3,74.5,143.6,70,134.9z"/>
		<path class="st0" d="M70,73.5c4.5-8.7,10.9-15.4,18.3-19C70,59.1,55.6,73.4,51,91.8C54.6,84.4,61.3,78,70,73.5z"/>
		<path class="st0" d="M52.2,96.2c2.8-2.6,7-4.9,12.2-6.8c0.9-4.2,2.1-8.1,3.7-11.7C60.2,82.4,54.6,88.9,52.2,96.2z"/>
		<path class="st0" d="M74.2,71.5c3.7-1.5,7.6-2.8,11.7-3.7c1.9-5.2,4.2-9.4,6.8-12.2C85.4,58,79,63.7,74.2,71.5z"/>
		<path class="st0" d="M65.6,105.5c0.1,3.9,0.5,7.7,1.2,11.4c4.3,1.4,9.2,2.6,14.6,3.4c-0.6-4.7-0.9-9.6-0.9-14.8H65.6z"/>
		<path class="st0" d="M84.9,137.5c-1.3-4.3-2.4-9.1-3.2-14.4c-5.3-0.8-10.1-1.8-14.4-3.2c1.1,4.6,2.7,9,4.6,12.9
			C75.9,134.9,80.3,136.4,84.9,137.5z"/>
		<path class="st0" d="M67.4,88.4c4.3-1.3,9.1-2.4,14.4-3.2c0.8-5.3,1.8-10.1,3.2-14.4c-4.6,1.1-9,2.7-12.9,4.6
			C70,79.4,68.5,83.7,67.4,88.4z"/>
		<path class="st0" d="M66.7,91.5c-0.7,3.6-1.1,7.4-1.2,11.4h14.8c0-5.2,0.4-10.1,0.9-14.8C75.9,88.9,71,90,66.7,91.5z"/>
		<path class="st0" d="M68,130.7c-1.5-3.7-2.8-7.6-3.7-11.7c-5.2-1.9-9.4-4.2-12.2-6.8C54.6,119.5,60.2,125.9,68,130.7z"/>
		<path class="st0" d="M63.8,115.8c-0.5-3.3-0.9-6.8-0.9-10.3H51C51.9,109.4,56.6,113,63.8,115.8z"/>
		<path class="st0" d="M62.9,102.8c0.1-3.5,0.4-7,0.9-10.3c-7.2,2.8-11.9,6.4-12.8,10.3H62.9z"/>
	</g>
</g>
<path class="st1" d="M168,119.3V88c4.5-1.7,7.8-6,7.8-11.1c0-6.5-5.3-11.8-11.8-11.8c-2.1,0-4,0.5-5.7,1.5l-20.5-20.5
	c0.8-1.6,1.3-3.4,1.3-5.3c0-6.5-5.3-11.8-11.8-11.8c-5.2,0-9.6,3.3-11.2,8H85.7c-1.6-4.6-6-8-11.2-8c-6.5,0-11.8,5.3-11.8,11.8
	c0,1.8,0.4,3.6,1.2,5.1L43.3,66.4c-1.6-0.9-3.5-1.4-5.5-1.4c-6.5,0-11.8,5.3-11.8,11.8c0,5,3.1,9.3,7.5,11v31.5
	c-4.4,1.7-7.5,6-7.5,11c0,6.5,5.3,11.8,11.8,11.8c1.7,0,3.3-0.4,4.8-1l21.1,21.1c-0.6,1.5-1,3.1-1,4.8c0,6.5,5.3,11.8,11.8,11.8
	c5,0,9.3-3.1,11-7.5h30.7c1.7,4.4,6,7.5,11,7.5c6.5,0,11.8-5.3,11.8-11.8c0-1.8-0.4-3.5-1.1-5l21-21c1.5,0.7,3.2,1.1,5,1.1
	c6.5,0,11.8-5.3,11.8-11.8C175.8,125.3,172.6,120.9,168,119.3z M152.1,130.4c0,2,0.5,3.8,1.3,5.4l-20.8,20.8
	c-1.6-0.8-3.5-1.3-5.4-1.3c-5.4,0-9.9,3.6-11.4,8.5h-30c-1.4-4.9-6-8.5-11.4-8.5c-2,0-4,0.5-5.6,1.4L48.2,136
	c0.9-1.7,1.4-3.6,1.4-5.6c0-5.4-3.6-9.9-8.6-11.4V88.3c4.9-1.4,8.6-6,8.6-11.4c0-1.8-0.4-3.4-1.1-4.9l20.7-20.7
	c1.6,0.8,3.4,1.3,5.3,1.3c5.2,0,9.6-3.4,11.2-8.1H116c1.6,4.7,6,8.1,11.2,8.1c1.8,0,3.6-0.4,5.1-1.2l20.8,20.8c-0.6,1.4-1,3-1,4.7
	c0,5.3,3.5,9.8,8.2,11.3v30.9C155.6,120.6,152.1,125.1,152.1,130.4z"/>
<g>
	<path class="st0" d="M283.4,140.7h-3.2c-2.5,0-5,0.3-7.4,1c-2.5,0.7-5.1,1.4-7.8,2.2c-2.7,0.8-5.7,1.5-8.9,2.2
		c-3.2,0.7-6.8,1-10.8,1c-7.1,0-13.3-1.2-18.8-3.6c-5.5-2.4-10.1-5.7-13.9-9.8c-3.8-4.2-6.6-9.1-8.6-14.7c-2-5.6-2.9-11.7-2.9-18.1
		c0-3.9,0.4-7.9,1.2-11.8c0.8-4,2.1-7.7,3.7-11.3c1.7-3.6,3.7-7,6.2-10.1c2.5-3.1,5.4-5.9,8.8-8.2c3.4-2.3,7.1-4.1,11.3-5.5
		c4.2-1.3,8.8-2,13.8-2c1.7,0,3.6,0.1,5.7,0.4c2.1,0.3,4.3,0.7,6.5,1.2c2.2,0.5,4.4,1.2,6.5,2c2.1,0.8,4.1,1.7,5.8,2.8h0.1l-0.4-5.5
		h10v30.4h-8.5c-0.6-3.6-1.6-6.8-3-9.5c-1.4-2.7-3.2-5-5.3-6.8c-2.1-1.8-4.5-3.2-7.2-4.1c-2.7-0.9-5.5-1.4-8.6-1.4
		c-4.5,0-8.5,1-11.8,3.1c-3.3,2.1-6.1,4.8-8.3,8.2c-2.2,3.4-3.8,7.3-4.8,11.8c-1.1,4.4-1.6,9-1.6,13.7c0,5.6,0.6,10.8,1.7,15.5
		c1.2,4.7,2.9,8.8,5.2,12.2c2.3,3.4,5.1,6.1,8.5,8c3.4,1.9,7.3,2.9,11.7,2.9c1.3,0,2.7-0.1,4.3-0.2c1.6-0.1,3.3-0.4,4.9-0.6
		c1.7-0.3,3.3-0.6,4.9-1.1c1.6-0.4,3-1,4.2-1.6v-12c0-1.2,0-2.3,0-3.5c0-1.1,0.1-2.2,0.1-3.3c0-1,0.1-2,0.2-2.8
		c0.1-0.8,0.1-1.5,0.2-2.1l-9.8,0.4v-10H292v8.6c-1.5,0.1-2.8,0.3-3.8,0.5c-1.1,0.3-2,0.8-2.7,1.6c-0.7,0.8-1.2,1.9-1.6,3.4
		c-0.4,1.5-0.5,3.4-0.5,5.9V140.7z"/>
	<path class="st0" d="M360,110.2l-42.7,0.8c0,3.5,0.3,6.8,1,9.9c0.7,3,1.7,5.6,3.1,7.8c1.4,2.2,3.3,3.9,5.6,5.1
		c2.3,1.2,5.2,1.9,8.6,1.9c1.3,0,2.8-0.2,4.4-0.5c1.6-0.3,3.2-0.9,4.9-1.6c1.7-0.8,3.3-1.8,5-3c1.7-1.2,3.3-2.8,4.8-4.6l5.8,5.5
		c-2.3,3.3-4.8,6-7.4,8.1c-2.6,2.1-5.3,3.7-7.9,4.8c-2.6,1.1-5.2,1.9-7.8,2.3c-2.6,0.4-4.9,0.6-7.1,0.6c-4.8,0-9.1-0.8-13.1-2.4
		c-3.9-1.6-7.3-3.9-10.1-6.9c-2.8-3-5-6.6-6.6-10.8c-1.5-4.2-2.3-9-2.3-14.3c0-4.6,0.8-8.9,2.3-13.1c1.5-4.2,3.7-7.8,6.6-11.1
		c2.8-3.2,6.2-5.8,10.2-7.7c4-1.9,8.4-2.9,13.3-2.9c2.4,0,4.8,0.2,7.2,0.6c2.4,0.4,4.7,1.1,6.8,2.1c2.2,1,4.2,2.3,6.1,3.9
		c1.9,1.6,3.5,3.6,4.8,6c1.4,2.4,2.4,5.2,3.2,8.4C359.6,102.3,360,106,360,110.2z M331.3,87.2c-1.9,0-3.6,0.4-5.1,1.1
		c-1.5,0.7-2.8,1.7-3.9,3c-1.1,1.3-2,2.8-2.7,4.6c-0.7,1.8-1.2,3.8-1.5,5.9H342c-0.1-2.7-0.4-4.9-1-6.8c-0.5-1.9-1.3-3.4-2.2-4.5
		c-1-1.2-2.1-2-3.3-2.5C334.2,87.5,332.9,87.2,331.3,87.2z"/>
	<path class="st0" d="M400.8,78.1c4.6,0,9,0.8,13,2.3c4,1.5,7.4,3.7,10.4,6.6c2.9,2.9,5.2,6.4,6.9,10.5c1.7,4.1,2.5,8.8,2.5,14
		c0,5.5-0.8,10.4-2.4,14.8c-1.6,4.4-3.8,8.2-6.7,11.3s-6.3,5.5-10.2,7.2c-4,1.7-8.3,2.5-13.1,2.5c-4.7,0-9.1-0.8-13.1-2.3
		c-4-1.5-7.5-3.7-10.5-6.6c-3-2.9-5.3-6.3-7-10.4c-1.7-4.1-2.5-8.7-2.5-13.8c0-5.4,0.9-10.3,2.6-14.7c1.7-4.4,4.1-8.2,7.1-11.4
		c3-3.1,6.5-5.6,10.4-7.3C392.2,79,396.4,78.1,400.8,78.1z M400.5,87.2c-2.5,0.1-4.6,0.8-6.3,2.2c-1.7,1.4-3.1,3.2-4.1,5.4
		c-1.1,2.2-1.8,4.7-2.3,7.5c-0.4,2.8-0.7,5.6-0.7,8.4c0,3.3,0.3,6.7,0.8,9.9c0.5,3.3,1.4,6.2,2.5,8.8c1.2,2.6,2.7,4.7,4.5,6.3
		c1.8,1.6,4.1,2.4,6.7,2.4c2.6,0,4.7-0.8,6.3-2.2c1.6-1.4,2.9-3.2,3.9-5.4c1-2.2,1.6-4.7,2-7.5c0.4-2.7,0.5-5.5,0.5-8.3
		c0-3.2-0.2-6.5-0.7-9.7c-0.4-3.3-1.2-6.2-2.3-8.9c-1.1-2.6-2.5-4.8-4.2-6.4C405.4,88.1,403.2,87.2,400.5,87.2z"/>
	<path class="st1" d="M483.3,112.1c0,6.3-0.6,11.6-1.8,16c-1.2,4.4-2.9,8.1-5.2,10.9s-5.1,4.9-8.5,6.2c-3.4,1.3-7.2,2-11.6,2
		c-2.5,0-4.9-0.3-7.2-1c-2.3-0.7-4.2-1.7-5.9-2.9c-1.7-1.2-3-2.7-4-4.4c-1-1.7-1.5-3.5-1.5-5.6c0-1.4,0.2-2.8,0.6-4.1
		c0.4-1.3,1-2.5,1.8-3.5c0.8-1,1.8-1.8,3-2.4c1.2-0.6,2.6-0.9,4.2-0.9c1.5,0,2.8,0.3,3.9,0.8c1.1,0.5,2,1.2,2.7,2
		c0.7,0.8,1.2,1.8,1.6,2.8c0.3,1.1,0.5,2.1,0.5,3.2c0,0.7-0.1,1.5-0.3,2.3c-0.2,0.8-0.5,1.5-0.8,2.3c0.2,0.4,0.4,0.8,0.8,1
		c0.4,0.3,0.7,0.5,1.1,0.7c0.4,0.2,0.8,0.3,1.1,0.3c0.4,0.1,0.7,0.1,0.9,0.1c1.9,0,3.3-0.8,4.3-2.4c1-1.6,1.5-4.2,1.5-7.9v-52
		c0-1.2,0-2.3,0-3.5c0-1.1,0.1-2.2,0.1-3.3c0-1,0.1-2,0.2-2.8c0.1-0.8,0.1-1.5,0.2-2.1l-9.8,0.4v-10h37.3v8.6
		c-1.5,0.1-2.8,0.2-3.9,0.4c-1.1,0.2-2.1,0.7-2.9,1.4c-0.8,0.7-1.4,1.8-1.8,3.3c-0.4,1.5-0.6,3.5-0.6,6.1V112.1z"/>
	<path class="st1" d="M506.8,123.7c0.2,2,0.8,3.8,1.9,5.6c1.1,1.7,2.5,3.2,4.3,4.5s3.9,2.3,6.2,3c2.4,0.7,5,1.1,7.7,1.1
		c1.1,0,2.1-0.1,3.2-0.4c1.1-0.3,2-0.6,2.9-1.2c0.8-0.5,1.5-1.2,2.1-2c0.5-0.8,0.8-1.8,0.8-2.9c0-1.2-0.3-2.3-1-3.1
		c-0.7-0.9-1.6-1.7-2.9-2.4s-2.8-1.5-4.7-2.2c-1.9-0.7-4-1.6-6.5-2.5c-2.7-1.1-5.4-2.1-8.2-3.3c-2.7-1.1-5.2-2.5-7.5-4.1
		c-2.2-1.6-4.1-3.6-5.5-5.9c-1.4-2.3-2.1-5.3-2.1-8.8c0-2.5,0.5-5,1.4-7.5s2.4-4.7,4.4-6.7c2-2,4.5-3.6,7.6-4.8
		c3.1-1.2,6.8-1.9,11-1.9c1.2,0,2.5,0.1,3.8,0.3c1.4,0.2,2.8,0.4,4.2,0.8c1.4,0.4,2.7,0.8,4.1,1.4c1.3,0.5,2.5,1.2,3.5,2h0.1
		l-0.2-3.7h9.9v22.9h-8.4c-0.4-2.2-1.1-4.3-2.1-6.1c-1-1.8-2.3-3.3-3.9-4.6c-1.6-1.2-3.3-2.2-5.4-2.9c-2-0.7-4.2-1-6.5-1
		c-1.1,0-2.2,0.1-3.2,0.4s-2,0.7-2.8,1.2c-0.8,0.5-1.4,1.3-1.9,2.1c-0.5,0.9-0.7,1.9-0.7,3.2c0,1.5,0.4,2.8,1.2,3.8
		c0.8,1,1.9,1.8,3.4,2.6c1.4,0.7,3.1,1.4,5,2c1.9,0.6,4,1.3,6.2,2.1c3.3,1.1,6.3,2.4,9.1,3.7c2.8,1.4,5.2,2.9,7.2,4.7
		s3.6,3.8,4.8,6.1c1.2,2.3,1.7,5,1.7,8c0,3.4-0.7,6.3-2,8.8s-3.1,4.6-5.3,6.2c-2.2,1.6-4.7,2.9-7.5,3.7c-2.8,0.8-5.8,1.2-8.8,1.2
		c-1.9,0-3.7-0.1-5.6-0.4c-1.9-0.3-3.6-0.6-5.3-1c-1.7-0.4-3.2-1-4.7-1.6c-1.4-0.6-2.6-1.3-3.6-2.1h-0.1l0.4,3.9H499l-0.5-22.3
		H506.8z"/>
</g>
</svg>
